<mxfile host="app.diagrams.net" agent="Mozilla/5.0 (Windows NT 10.0; Win64; x64) AppleWebKit/537.36 (KHTML, like Gecko) Chrome/126.0.0.0 YaBrowser/24.7.0.0 Safari/537.36" version="24.7.17">
  <diagram name="Страница — 1" id="m0oTRbkZFkC00hhJA9YK">
    <mxGraphModel dx="988" dy="1825" grid="1" gridSize="10" guides="1" tooltips="1" connect="1" arrows="1" fold="1" page="1" pageScale="1" pageWidth="827" pageHeight="1169" math="0" shadow="0">
      <root>
        <mxCell id="0" />
        <mxCell id="1" parent="0" />
        <mxCell id="jrZ7XB1-wAAe-d6OG5qt-242" value="" style="rounded=1;whiteSpace=wrap;html=1;dashed=1;" parent="1" vertex="1">
          <mxGeometry x="330" y="-530" width="170" height="30" as="geometry" />
        </mxCell>
        <mxCell id="1zE7--B8gmnd__9OY-mV-59" value="" style="group;strokeWidth=2;" parent="1" vertex="1" connectable="0">
          <mxGeometry x="79.99999999999989" y="-910" width="170" height="360" as="geometry" />
        </mxCell>
        <mxCell id="jrZ7XB1-wAAe-d6OG5qt-86" value="" style="group" parent="1zE7--B8gmnd__9OY-mV-59" vertex="1" connectable="0">
          <mxGeometry width="170" height="360" as="geometry" />
        </mxCell>
        <mxCell id="JTxMD57BZDx9iJpPwKIt-2" value="" style="rounded=1;whiteSpace=wrap;html=1;" parent="jrZ7XB1-wAAe-d6OG5qt-86" vertex="1">
          <mxGeometry width="170" height="360" as="geometry" />
        </mxCell>
        <mxCell id="1zE7--B8gmnd__9OY-mV-63" value="" style="group;" parent="jrZ7XB1-wAAe-d6OG5qt-86" vertex="1" connectable="0">
          <mxGeometry x="15" y="61.38" width="140" height="70.35" as="geometry" />
        </mxCell>
        <mxCell id="jrZ7XB1-wAAe-d6OG5qt-90" value="" style="group" parent="1zE7--B8gmnd__9OY-mV-63" vertex="1" connectable="0">
          <mxGeometry width="140" height="70.35" as="geometry" />
        </mxCell>
        <mxCell id="1zE7--B8gmnd__9OY-mV-64" value="&lt;div&gt;&lt;div&gt;&lt;b style=&quot;font-size: 16px;&quot;&gt;&lt;br&gt;&lt;/b&gt;&lt;/div&gt;&lt;/div&gt;" style="rounded=1;whiteSpace=wrap;html=1;" parent="jrZ7XB1-wAAe-d6OG5qt-90" vertex="1">
          <mxGeometry y="0.34999999999998016" width="140" height="70.00000000000001" as="geometry" />
        </mxCell>
        <mxCell id="1zE7--B8gmnd__9OY-mV-65" value="" style="html=1;verticalLabelPosition=bottom;align=center;labelBackgroundColor=#ffffff;verticalAlign=top;strokeWidth=2;strokeColor=#6D1F00;shadow=0;dashed=0;shape=mxgraph.ios7.icons.shopping_cart;fillColor=#a0522d;fontColor=#ffffff;" parent="jrZ7XB1-wAAe-d6OG5qt-90" vertex="1">
          <mxGeometry x="105" y="39.999999999999964" width="20" height="19.700000000000003" as="geometry" />
        </mxCell>
        <mxCell id="1zE7--B8gmnd__9OY-mV-66" value="" style="html=1;verticalLabelPosition=bottom;align=center;labelBackgroundColor=#ffffff;verticalAlign=top;strokeWidth=2;strokeColor=#B20000;shadow=0;dashed=0;shape=mxgraph.ios7.icons.heart;fillColor=#e51400;fontColor=#ffffff;" parent="jrZ7XB1-wAAe-d6OG5qt-90" vertex="1">
          <mxGeometry x="45" y="42.95000000000001" width="20.3" height="16.750000000000004" as="geometry" />
        </mxCell>
        <mxCell id="1zE7--B8gmnd__9OY-mV-67" value="" style="html=1;verticalLabelPosition=bottom;align=center;labelBackgroundColor=#ffffff;verticalAlign=top;strokeWidth=2;strokeColor=#2D7600;shadow=0;dashed=0;shape=mxgraph.ios7.icons.link;fillColor=#60a917;fontColor=#ffffff;" parent="jrZ7XB1-wAAe-d6OG5qt-90" vertex="1">
          <mxGeometry x="75" y="41.97999999999998" width="20" height="17.720000000000002" as="geometry" />
        </mxCell>
        <mxCell id="1zE7--B8gmnd__9OY-mV-68" value="" style="html=1;verticalLabelPosition=bottom;align=center;labelBackgroundColor=#ffffff;verticalAlign=top;strokeWidth=2;strokeColor=#fddb1c;shadow=0;dashed=0;shape=mxgraph.ios7.icons.star;fillColor=#e3c800;fontColor=#000000;" parent="jrZ7XB1-wAAe-d6OG5qt-90" vertex="1">
          <mxGeometry x="15" y="40.46999999999999" width="20" height="18.260000000000005" as="geometry" />
        </mxCell>
        <mxCell id="1zE7--B8gmnd__9OY-mV-69" value="&lt;font color=&quot;#007fff&quot; style=&quot;font-size: 16px;&quot;&gt;товар_1&lt;/font&gt;" style="text;strokeColor=none;fillColor=none;html=1;fontSize=24;fontStyle=1;verticalAlign=middle;align=center;" parent="jrZ7XB1-wAAe-d6OG5qt-90" vertex="1">
          <mxGeometry x="20" width="100" height="40.00000000000001" as="geometry" />
        </mxCell>
        <mxCell id="jrZ7XB1-wAAe-d6OG5qt-179" value="&lt;b&gt;&lt;font color=&quot;#4f4f4f&quot;&gt;5&lt;/font&gt;&lt;/b&gt;" style="text;html=1;align=center;verticalAlign=middle;resizable=0;points=[];autosize=1;strokeColor=none;fillColor=none;" parent="jrZ7XB1-wAAe-d6OG5qt-90" vertex="1">
          <mxGeometry x="10.000000000000114" y="35.84000000000003" width="30" height="30" as="geometry" />
        </mxCell>
        <mxCell id="1zE7--B8gmnd__9OY-mV-49" value="&lt;font color=&quot;#4f4f4f&quot;&gt;Покупки&lt;/font&gt;" style="text;strokeColor=none;fillColor=none;html=1;fontSize=24;fontStyle=1;verticalAlign=middle;align=center;" parent="jrZ7XB1-wAAe-d6OG5qt-86" vertex="1">
          <mxGeometry x="35" y="10" width="100" height="40" as="geometry" />
        </mxCell>
        <mxCell id="1zE7--B8gmnd__9OY-mV-71" value="" style="group;" parent="jrZ7XB1-wAAe-d6OG5qt-86" vertex="1" connectable="0">
          <mxGeometry x="15" y="141" width="140" height="70.35" as="geometry" />
        </mxCell>
        <mxCell id="1zE7--B8gmnd__9OY-mV-72" value="&lt;div&gt;&lt;div&gt;&lt;b style=&quot;font-size: 16px;&quot;&gt;&lt;br&gt;&lt;/b&gt;&lt;/div&gt;&lt;/div&gt;" style="rounded=1;whiteSpace=wrap;html=1;" parent="1zE7--B8gmnd__9OY-mV-71" vertex="1">
          <mxGeometry y="0.34999999999998016" width="140" height="70.00000000000001" as="geometry" />
        </mxCell>
        <mxCell id="1zE7--B8gmnd__9OY-mV-73" value="" style="html=1;verticalLabelPosition=bottom;align=center;labelBackgroundColor=#ffffff;verticalAlign=top;strokeWidth=2;strokeColor=#6D1F00;shadow=0;dashed=0;shape=mxgraph.ios7.icons.shopping_cart;fillColor=none;fontColor=#ffffff;" parent="1zE7--B8gmnd__9OY-mV-71" vertex="1">
          <mxGeometry x="105" y="39.999999999999964" width="20" height="19.700000000000003" as="geometry" />
        </mxCell>
        <mxCell id="1zE7--B8gmnd__9OY-mV-74" value="" style="html=1;verticalLabelPosition=bottom;align=center;labelBackgroundColor=#ffffff;verticalAlign=top;strokeWidth=2;strokeColor=#B20000;shadow=0;dashed=0;shape=mxgraph.ios7.icons.heart;fillColor=none;fontColor=#ffffff;" parent="1zE7--B8gmnd__9OY-mV-71" vertex="1">
          <mxGeometry x="45" y="42.95000000000001" width="20.3" height="16.750000000000004" as="geometry" />
        </mxCell>
        <mxCell id="1zE7--B8gmnd__9OY-mV-75" value="" style="html=1;verticalLabelPosition=bottom;align=center;labelBackgroundColor=#ffffff;verticalAlign=top;strokeWidth=2;strokeColor=#2D7600;shadow=0;dashed=0;shape=mxgraph.ios7.icons.link;fillColor=#60a917;fontColor=#ffffff;" parent="1zE7--B8gmnd__9OY-mV-71" vertex="1">
          <mxGeometry x="75" y="41.97999999999998" width="20" height="17.720000000000002" as="geometry" />
        </mxCell>
        <mxCell id="1zE7--B8gmnd__9OY-mV-77" value="&lt;font color=&quot;#007fff&quot; style=&quot;font-size: 16px;&quot;&gt;товар_4&lt;/font&gt;" style="text;strokeColor=none;fillColor=none;html=1;fontSize=24;fontStyle=1;verticalAlign=middle;align=center;" parent="1zE7--B8gmnd__9OY-mV-71" vertex="1">
          <mxGeometry x="20" width="100" height="40.00000000000001" as="geometry" />
        </mxCell>
        <mxCell id="1zE7--B8gmnd__9OY-mV-139" value="" style="html=1;verticalLabelPosition=bottom;align=center;labelBackgroundColor=#ffffff;verticalAlign=top;strokeWidth=2;strokeColor=#fddb1c;shadow=0;dashed=0;shape=mxgraph.ios7.icons.star;fillColor=none;fontColor=#000000;" parent="1zE7--B8gmnd__9OY-mV-71" vertex="1">
          <mxGeometry x="15" y="41.97999999999999" width="20" height="18.260000000000005" as="geometry" />
        </mxCell>
        <mxCell id="1zE7--B8gmnd__9OY-mV-182" value="" style="group;" parent="jrZ7XB1-wAAe-d6OG5qt-86" vertex="1" connectable="0">
          <mxGeometry x="15" y="220" width="140" height="70.35" as="geometry" />
        </mxCell>
        <mxCell id="1zE7--B8gmnd__9OY-mV-183" value="&lt;div&gt;&lt;div&gt;&lt;b style=&quot;font-size: 16px;&quot;&gt;&lt;br&gt;&lt;/b&gt;&lt;/div&gt;&lt;/div&gt;" style="rounded=1;whiteSpace=wrap;html=1;" parent="1zE7--B8gmnd__9OY-mV-182" vertex="1">
          <mxGeometry y="0.34999999999998016" width="140" height="70.00000000000001" as="geometry" />
        </mxCell>
        <mxCell id="1zE7--B8gmnd__9OY-mV-184" value="" style="html=1;verticalLabelPosition=bottom;align=center;labelBackgroundColor=#ffffff;verticalAlign=top;strokeWidth=2;strokeColor=#6D1F00;shadow=0;dashed=0;shape=mxgraph.ios7.icons.shopping_cart;fillColor=#a0522d;fontColor=#ffffff;" parent="1zE7--B8gmnd__9OY-mV-182" vertex="1">
          <mxGeometry x="105" y="39.999999999999964" width="20" height="19.700000000000003" as="geometry" />
        </mxCell>
        <mxCell id="1zE7--B8gmnd__9OY-mV-185" value="" style="html=1;verticalLabelPosition=bottom;align=center;labelBackgroundColor=#ffffff;verticalAlign=top;strokeWidth=2;strokeColor=#B20000;shadow=0;dashed=0;shape=mxgraph.ios7.icons.heart;fillColor=none;fontColor=#ffffff;" parent="1zE7--B8gmnd__9OY-mV-182" vertex="1">
          <mxGeometry x="45" y="42.95000000000001" width="20.3" height="16.750000000000004" as="geometry" />
        </mxCell>
        <mxCell id="1zE7--B8gmnd__9OY-mV-186" value="" style="html=1;verticalLabelPosition=bottom;align=center;labelBackgroundColor=#ffffff;verticalAlign=top;strokeWidth=2;strokeColor=#2D7600;shadow=0;dashed=0;shape=mxgraph.ios7.icons.link;fillColor=#60a917;fontColor=#ffffff;gradientColor=none;" parent="1zE7--B8gmnd__9OY-mV-182" vertex="1">
          <mxGeometry x="75" y="41.97999999999998" width="20" height="17.720000000000002" as="geometry" />
        </mxCell>
        <mxCell id="1zE7--B8gmnd__9OY-mV-187" value="&lt;font color=&quot;#007fff&quot; style=&quot;font-size: 16px;&quot;&gt;товар_9&lt;/font&gt;" style="text;strokeColor=none;fillColor=none;html=1;fontSize=24;fontStyle=1;verticalAlign=middle;align=center;" parent="1zE7--B8gmnd__9OY-mV-182" vertex="1">
          <mxGeometry x="20" width="100" height="40.00000000000001" as="geometry" />
        </mxCell>
        <mxCell id="1zE7--B8gmnd__9OY-mV-188" value="" style="html=1;verticalLabelPosition=bottom;align=center;labelBackgroundColor=#ffffff;verticalAlign=top;strokeWidth=2;strokeColor=#fddb1c;shadow=0;dashed=0;shape=mxgraph.ios7.icons.star;fillColor=none;fontColor=#000000;" parent="1zE7--B8gmnd__9OY-mV-182" vertex="1">
          <mxGeometry x="15" y="41.97999999999999" width="20" height="18.260000000000005" as="geometry" />
        </mxCell>
        <mxCell id="1zE7--B8gmnd__9OY-mV-53" value="" style="group;" parent="jrZ7XB1-wAAe-d6OG5qt-86" vertex="1" connectable="0">
          <mxGeometry x="19.999999999999886" y="300.35" width="50" height="40" as="geometry" />
        </mxCell>
        <mxCell id="1zE7--B8gmnd__9OY-mV-54" value="" style="rounded=1;whiteSpace=wrap;html=1;" parent="1zE7--B8gmnd__9OY-mV-53" vertex="1">
          <mxGeometry y="10" width="50" height="30" as="geometry" />
        </mxCell>
        <mxCell id="1zE7--B8gmnd__9OY-mV-55" value="" style="html=1;verticalLabelPosition=bottom;align=center;labelBackgroundColor=#ffffff;verticalAlign=top;strokeWidth=2;strokeColor=#0080F0;shadow=0;dashed=0;shape=mxgraph.ios7.icons.back;" parent="1zE7--B8gmnd__9OY-mV-53" vertex="1">
          <mxGeometry x="10" y="15" width="30" height="20" as="geometry" />
        </mxCell>
        <mxCell id="1zE7--B8gmnd__9OY-mV-56" value="" style="group;" parent="jrZ7XB1-wAAe-d6OG5qt-86" vertex="1" connectable="0">
          <mxGeometry x="99.99999999999989" y="300.35" width="50" height="40" as="geometry" />
        </mxCell>
        <mxCell id="1zE7--B8gmnd__9OY-mV-57" value="" style="rounded=1;whiteSpace=wrap;html=1;" parent="1zE7--B8gmnd__9OY-mV-56" vertex="1">
          <mxGeometry y="10" width="50" height="30" as="geometry" />
        </mxCell>
        <mxCell id="1zE7--B8gmnd__9OY-mV-58" value="" style="html=1;verticalLabelPosition=bottom;align=center;labelBackgroundColor=#ffffff;verticalAlign=top;strokeWidth=2;strokeColor=#0080F0;shadow=0;dashed=0;shape=mxgraph.ios7.icons.home;" parent="1zE7--B8gmnd__9OY-mV-56" vertex="1">
          <mxGeometry x="13" y="15" width="24" height="20" as="geometry" />
        </mxCell>
        <mxCell id="1zE7--B8gmnd__9OY-mV-79" value="" style="group;strokeWidth=2;" parent="1" vertex="1" connectable="0">
          <mxGeometry x="578" y="-470" width="170" height="360" as="geometry" />
        </mxCell>
        <mxCell id="1zE7--B8gmnd__9OY-mV-80" value="" style="rounded=1;whiteSpace=wrap;html=1;" parent="1zE7--B8gmnd__9OY-mV-79" vertex="1">
          <mxGeometry width="170" height="360" as="geometry" />
        </mxCell>
        <mxCell id="1zE7--B8gmnd__9OY-mV-88" value="&lt;font color=&quot;#4f4f4f&quot;&gt;Избранное&lt;/font&gt;" style="text;strokeColor=none;fillColor=none;html=1;fontSize=24;fontStyle=1;verticalAlign=middle;align=center;" parent="1zE7--B8gmnd__9OY-mV-79" vertex="1">
          <mxGeometry x="35" y="8" width="100" height="40" as="geometry" />
        </mxCell>
        <mxCell id="1zE7--B8gmnd__9OY-mV-96" value="" style="group" parent="1zE7--B8gmnd__9OY-mV-79" vertex="1" connectable="0">
          <mxGeometry x="20" y="300" width="50" height="40" as="geometry" />
        </mxCell>
        <mxCell id="1zE7--B8gmnd__9OY-mV-97" value="" style="rounded=1;whiteSpace=wrap;html=1;" parent="1zE7--B8gmnd__9OY-mV-96" vertex="1">
          <mxGeometry y="10" width="50" height="30" as="geometry" />
        </mxCell>
        <mxCell id="1zE7--B8gmnd__9OY-mV-98" value="" style="html=1;verticalLabelPosition=bottom;align=center;labelBackgroundColor=#ffffff;verticalAlign=top;strokeWidth=2;strokeColor=#0080F0;shadow=0;dashed=0;shape=mxgraph.ios7.icons.back;" parent="1zE7--B8gmnd__9OY-mV-96" vertex="1">
          <mxGeometry x="10" y="15" width="30" height="20" as="geometry" />
        </mxCell>
        <mxCell id="1zE7--B8gmnd__9OY-mV-99" value="" style="group" parent="1zE7--B8gmnd__9OY-mV-79" vertex="1" connectable="0">
          <mxGeometry x="100" y="300" width="50" height="40" as="geometry" />
        </mxCell>
        <mxCell id="1zE7--B8gmnd__9OY-mV-100" value="" style="rounded=1;whiteSpace=wrap;html=1;" parent="1zE7--B8gmnd__9OY-mV-99" vertex="1">
          <mxGeometry y="10" width="50" height="30" as="geometry" />
        </mxCell>
        <mxCell id="1zE7--B8gmnd__9OY-mV-101" value="" style="html=1;verticalLabelPosition=bottom;align=center;labelBackgroundColor=#ffffff;verticalAlign=top;strokeWidth=2;strokeColor=#0080F0;shadow=0;dashed=0;shape=mxgraph.ios7.icons.home;" parent="1zE7--B8gmnd__9OY-mV-99" vertex="1">
          <mxGeometry x="13" y="15" width="24" height="20" as="geometry" />
        </mxCell>
        <mxCell id="1zE7--B8gmnd__9OY-mV-149" value="" style="group" parent="1zE7--B8gmnd__9OY-mV-79" vertex="1" connectable="0">
          <mxGeometry x="15" y="59.35" width="140" height="70.35" as="geometry" />
        </mxCell>
        <mxCell id="1zE7--B8gmnd__9OY-mV-150" value="&lt;div&gt;&lt;div&gt;&lt;b style=&quot;font-size: 16px;&quot;&gt;&lt;br&gt;&lt;/b&gt;&lt;/div&gt;&lt;/div&gt;" style="rounded=1;whiteSpace=wrap;html=1;" parent="1zE7--B8gmnd__9OY-mV-149" vertex="1">
          <mxGeometry y="0.34999999999998016" width="140" height="70.00000000000001" as="geometry" />
        </mxCell>
        <mxCell id="1zE7--B8gmnd__9OY-mV-151" value="" style="html=1;verticalLabelPosition=bottom;align=center;labelBackgroundColor=#ffffff;verticalAlign=top;strokeWidth=2;strokeColor=#6D1F00;shadow=0;dashed=0;shape=mxgraph.ios7.icons.shopping_cart;fillColor=none;fontColor=#ffffff;" parent="1zE7--B8gmnd__9OY-mV-149" vertex="1">
          <mxGeometry x="105" y="39.999999999999964" width="20" height="19.700000000000003" as="geometry" />
        </mxCell>
        <mxCell id="1zE7--B8gmnd__9OY-mV-152" value="" style="html=1;verticalLabelPosition=bottom;align=center;labelBackgroundColor=#ffffff;verticalAlign=top;strokeWidth=2;strokeColor=#B20000;shadow=0;dashed=0;shape=mxgraph.ios7.icons.heart;fillColor=#e51400;fontColor=#ffffff;" parent="1zE7--B8gmnd__9OY-mV-149" vertex="1">
          <mxGeometry x="45" y="42.95000000000001" width="20.3" height="16.750000000000004" as="geometry" />
        </mxCell>
        <mxCell id="1zE7--B8gmnd__9OY-mV-153" value="" style="html=1;verticalLabelPosition=bottom;align=center;labelBackgroundColor=#ffffff;verticalAlign=top;strokeWidth=2;strokeColor=#2D7600;shadow=0;dashed=0;shape=mxgraph.ios7.icons.link;fillColor=#60a917;fontColor=#ffffff;" parent="1zE7--B8gmnd__9OY-mV-149" vertex="1">
          <mxGeometry x="75" y="41.97999999999998" width="20" height="17.720000000000002" as="geometry" />
        </mxCell>
        <mxCell id="1zE7--B8gmnd__9OY-mV-154" value="&lt;font color=&quot;#007fff&quot; style=&quot;font-size: 16px;&quot;&gt;товар_3&lt;/font&gt;" style="text;strokeColor=none;fillColor=none;html=1;fontSize=24;fontStyle=1;verticalAlign=middle;align=center;" parent="1zE7--B8gmnd__9OY-mV-149" vertex="1">
          <mxGeometry x="20" width="100" height="40.00000000000001" as="geometry" />
        </mxCell>
        <mxCell id="1zE7--B8gmnd__9OY-mV-155" value="" style="html=1;verticalLabelPosition=bottom;align=center;labelBackgroundColor=#ffffff;verticalAlign=top;strokeWidth=2;strokeColor=#878F99;shadow=0;dashed=0;shape=mxgraph.ios7.icons.star;fillColor=#eeeeee;" parent="1zE7--B8gmnd__9OY-mV-149" vertex="1">
          <mxGeometry x="15" y="41.709999999999994" width="20" height="18.260000000000005" as="geometry" />
        </mxCell>
        <mxCell id="jrZ7XB1-wAAe-d6OG5qt-44" value="" style="group" parent="1zE7--B8gmnd__9OY-mV-79" vertex="1" connectable="0">
          <mxGeometry x="15" y="138" width="140" height="70.35" as="geometry" />
        </mxCell>
        <mxCell id="jrZ7XB1-wAAe-d6OG5qt-45" value="&lt;div&gt;&lt;div&gt;&lt;b style=&quot;font-size: 16px;&quot;&gt;&lt;br&gt;&lt;/b&gt;&lt;/div&gt;&lt;/div&gt;" style="rounded=1;whiteSpace=wrap;html=1;" parent="jrZ7XB1-wAAe-d6OG5qt-44" vertex="1">
          <mxGeometry y="0.34999999999998016" width="140" height="70.00000000000001" as="geometry" />
        </mxCell>
        <mxCell id="jrZ7XB1-wAAe-d6OG5qt-46" value="" style="html=1;verticalLabelPosition=bottom;align=center;labelBackgroundColor=#ffffff;verticalAlign=top;strokeWidth=2;strokeColor=#6D1F00;shadow=0;dashed=0;shape=mxgraph.ios7.icons.shopping_cart;fillColor=none;fontColor=#ffffff;" parent="jrZ7XB1-wAAe-d6OG5qt-44" vertex="1">
          <mxGeometry x="105" y="39.999999999999964" width="20" height="19.700000000000003" as="geometry" />
        </mxCell>
        <mxCell id="jrZ7XB1-wAAe-d6OG5qt-47" value="" style="html=1;verticalLabelPosition=bottom;align=center;labelBackgroundColor=#ffffff;verticalAlign=top;strokeWidth=2;strokeColor=#B20000;shadow=0;dashed=0;shape=mxgraph.ios7.icons.heart;fillColor=#e51400;fontColor=#ffffff;" parent="jrZ7XB1-wAAe-d6OG5qt-44" vertex="1">
          <mxGeometry x="45" y="42.95000000000001" width="20.3" height="16.750000000000004" as="geometry" />
        </mxCell>
        <mxCell id="jrZ7XB1-wAAe-d6OG5qt-48" value="" style="html=1;verticalLabelPosition=bottom;align=center;labelBackgroundColor=#ffffff;verticalAlign=top;strokeWidth=2;strokeColor=#2D7600;shadow=0;dashed=0;shape=mxgraph.ios7.icons.link;fillColor=#60a917;fontColor=#ffffff;" parent="jrZ7XB1-wAAe-d6OG5qt-44" vertex="1">
          <mxGeometry x="75" y="41.97999999999998" width="20" height="17.720000000000002" as="geometry" />
        </mxCell>
        <mxCell id="jrZ7XB1-wAAe-d6OG5qt-49" value="&lt;font color=&quot;#007fff&quot; style=&quot;font-size: 16px;&quot;&gt;товар_1&lt;/font&gt;" style="text;strokeColor=none;fillColor=none;html=1;fontSize=24;fontStyle=1;verticalAlign=middle;align=center;" parent="jrZ7XB1-wAAe-d6OG5qt-44" vertex="1">
          <mxGeometry x="20" width="100" height="40.00000000000001" as="geometry" />
        </mxCell>
        <mxCell id="jrZ7XB1-wAAe-d6OG5qt-56" value="" style="html=1;verticalLabelPosition=bottom;align=center;labelBackgroundColor=#ffffff;verticalAlign=top;strokeWidth=2;strokeColor=#878F99;shadow=0;dashed=0;shape=mxgraph.ios7.icons.star;fillColor=#C2C2C2;" parent="jrZ7XB1-wAAe-d6OG5qt-44" vertex="1">
          <mxGeometry x="15" y="42.19999999999999" width="20" height="18.260000000000005" as="geometry" />
        </mxCell>
        <mxCell id="jrZ7XB1-wAAe-d6OG5qt-184" value="&lt;b&gt;&lt;font color=&quot;#4f4f4f&quot;&gt;5&lt;/font&gt;&lt;/b&gt;" style="text;html=1;align=center;verticalAlign=middle;resizable=0;points=[];autosize=1;strokeColor=none;fillColor=none;" parent="jrZ7XB1-wAAe-d6OG5qt-44" vertex="1">
          <mxGeometry x="10" y="36.33000000000004" width="30" height="30" as="geometry" />
        </mxCell>
        <mxCell id="1zE7--B8gmnd__9OY-mV-116" value="" style="group;strokeWidth=2;" parent="1" vertex="1" connectable="0">
          <mxGeometry x="579.9999999999999" y="-910" width="170" height="360" as="geometry" />
        </mxCell>
        <mxCell id="1zE7--B8gmnd__9OY-mV-117" value="" style="rounded=1;whiteSpace=wrap;html=1;" parent="1zE7--B8gmnd__9OY-mV-116" vertex="1">
          <mxGeometry width="170" height="360" as="geometry" />
        </mxCell>
        <mxCell id="1zE7--B8gmnd__9OY-mV-118" value="" style="group" parent="1zE7--B8gmnd__9OY-mV-116" vertex="1" connectable="0">
          <mxGeometry x="15" y="141" width="140" height="70.35" as="geometry" />
        </mxCell>
        <mxCell id="1zE7--B8gmnd__9OY-mV-119" value="&lt;div&gt;&lt;div&gt;&lt;b style=&quot;font-size: 16px;&quot;&gt;&lt;br&gt;&lt;/b&gt;&lt;/div&gt;&lt;/div&gt;" style="rounded=1;whiteSpace=wrap;html=1;" parent="1zE7--B8gmnd__9OY-mV-118" vertex="1">
          <mxGeometry y="0.34999999999998016" width="140" height="70.00000000000001" as="geometry" />
        </mxCell>
        <mxCell id="1zE7--B8gmnd__9OY-mV-120" value="" style="html=1;verticalLabelPosition=bottom;align=center;labelBackgroundColor=#ffffff;verticalAlign=top;strokeWidth=2;strokeColor=#6D1F00;shadow=0;dashed=0;shape=mxgraph.ios7.icons.shopping_cart;fillColor=none;fontColor=#ffffff;" parent="1zE7--B8gmnd__9OY-mV-118" vertex="1">
          <mxGeometry x="105" y="39.999999999999964" width="20" height="19.700000000000003" as="geometry" />
        </mxCell>
        <mxCell id="1zE7--B8gmnd__9OY-mV-121" value="" style="html=1;verticalLabelPosition=bottom;align=center;labelBackgroundColor=#ffffff;verticalAlign=top;strokeWidth=2;strokeColor=#B20000;shadow=0;dashed=0;shape=mxgraph.ios7.icons.heart;fillColor=#e51400;fontColor=#ffffff;" parent="1zE7--B8gmnd__9OY-mV-118" vertex="1">
          <mxGeometry x="45" y="42.95000000000001" width="20.3" height="16.750000000000004" as="geometry" />
        </mxCell>
        <mxCell id="1zE7--B8gmnd__9OY-mV-122" value="" style="html=1;verticalLabelPosition=bottom;align=center;labelBackgroundColor=#ffffff;verticalAlign=top;strokeWidth=2;strokeColor=#2D7600;shadow=0;dashed=0;shape=mxgraph.ios7.icons.link;fillColor=#60a917;fontColor=#ffffff;" parent="1zE7--B8gmnd__9OY-mV-118" vertex="1">
          <mxGeometry x="75" y="41.97999999999998" width="20" height="17.720000000000002" as="geometry" />
        </mxCell>
        <mxCell id="1zE7--B8gmnd__9OY-mV-124" value="&lt;font color=&quot;#007fff&quot; style=&quot;font-size: 16px;&quot;&gt;товар_1&lt;/font&gt;" style="text;strokeColor=none;fillColor=none;html=1;fontSize=24;fontStyle=1;verticalAlign=middle;align=center;" parent="1zE7--B8gmnd__9OY-mV-118" vertex="1">
          <mxGeometry x="20" width="100" height="40.00000000000001" as="geometry" />
        </mxCell>
        <mxCell id="1zE7--B8gmnd__9OY-mV-140" value="" style="html=1;verticalLabelPosition=bottom;align=center;labelBackgroundColor=#ffffff;verticalAlign=top;strokeWidth=2;strokeColor=#fddb1c;shadow=0;dashed=0;shape=mxgraph.ios7.icons.star;fillColor=#e3c800;fontColor=#000000;" parent="1zE7--B8gmnd__9OY-mV-118" vertex="1">
          <mxGeometry x="15" y="41.709999999999994" width="20" height="18.260000000000005" as="geometry" />
        </mxCell>
        <mxCell id="jrZ7XB1-wAAe-d6OG5qt-185" value="&lt;b&gt;&lt;font color=&quot;#4f4f4f&quot;&gt;5&lt;/font&gt;&lt;/b&gt;" style="text;html=1;align=center;verticalAlign=middle;resizable=0;points=[];autosize=1;strokeColor=none;fillColor=none;" parent="1zE7--B8gmnd__9OY-mV-118" vertex="1">
          <mxGeometry x="10.000000000000114" y="36.33000000000002" width="30" height="30" as="geometry" />
        </mxCell>
        <mxCell id="1zE7--B8gmnd__9OY-mV-125" value="&lt;font color=&quot;#4f4f4f&quot;&gt;Покупки&lt;/font&gt;" style="text;strokeColor=none;fillColor=none;html=1;fontSize=24;fontStyle=1;verticalAlign=middle;align=center;" parent="1zE7--B8gmnd__9OY-mV-116" vertex="1">
          <mxGeometry x="35" y="10" width="100" height="40" as="geometry" />
        </mxCell>
        <mxCell id="1zE7--B8gmnd__9OY-mV-126" value="" style="group" parent="1zE7--B8gmnd__9OY-mV-116" vertex="1" connectable="0">
          <mxGeometry x="15" y="220" width="140" height="70.35" as="geometry" />
        </mxCell>
        <mxCell id="1zE7--B8gmnd__9OY-mV-127" value="&lt;div&gt;&lt;div&gt;&lt;b style=&quot;font-size: 16px;&quot;&gt;&lt;br&gt;&lt;/b&gt;&lt;/div&gt;&lt;/div&gt;" style="rounded=1;whiteSpace=wrap;html=1;" parent="1zE7--B8gmnd__9OY-mV-126" vertex="1">
          <mxGeometry y="0.34999999999998016" width="140" height="70.00000000000001" as="geometry" />
        </mxCell>
        <mxCell id="1zE7--B8gmnd__9OY-mV-128" value="" style="html=1;verticalLabelPosition=bottom;align=center;labelBackgroundColor=#ffffff;verticalAlign=top;strokeWidth=2;strokeColor=#6D1F00;shadow=0;dashed=0;shape=mxgraph.ios7.icons.shopping_cart;fillColor=none;fontColor=#ffffff;" parent="1zE7--B8gmnd__9OY-mV-126" vertex="1">
          <mxGeometry x="105" y="39.999999999999964" width="20" height="19.700000000000003" as="geometry" />
        </mxCell>
        <mxCell id="1zE7--B8gmnd__9OY-mV-129" value="" style="html=1;verticalLabelPosition=bottom;align=center;labelBackgroundColor=#ffffff;verticalAlign=top;strokeWidth=2;strokeColor=#B20000;shadow=0;dashed=0;shape=mxgraph.ios7.icons.heart;fillColor=none;fontColor=#ffffff;" parent="1zE7--B8gmnd__9OY-mV-126" vertex="1">
          <mxGeometry x="45" y="42.95000000000001" width="20.3" height="16.750000000000004" as="geometry" />
        </mxCell>
        <mxCell id="1zE7--B8gmnd__9OY-mV-130" value="" style="html=1;verticalLabelPosition=bottom;align=center;labelBackgroundColor=#ffffff;verticalAlign=top;strokeWidth=2;strokeColor=#2D7600;shadow=0;dashed=0;shape=mxgraph.ios7.icons.link;fillColor=#60a917;fontColor=#ffffff;" parent="1zE7--B8gmnd__9OY-mV-126" vertex="1">
          <mxGeometry x="75" y="41.97999999999998" width="20" height="17.720000000000002" as="geometry" />
        </mxCell>
        <mxCell id="1zE7--B8gmnd__9OY-mV-132" value="&lt;font color=&quot;#007fff&quot; style=&quot;font-size: 16px;&quot;&gt;товар_9&lt;/font&gt;" style="text;strokeColor=none;fillColor=none;html=1;fontSize=24;fontStyle=1;verticalAlign=middle;align=center;" parent="1zE7--B8gmnd__9OY-mV-126" vertex="1">
          <mxGeometry x="20" width="100" height="40.00000000000001" as="geometry" />
        </mxCell>
        <mxCell id="1zE7--B8gmnd__9OY-mV-141" value="" style="html=1;verticalLabelPosition=bottom;align=center;labelBackgroundColor=#ffffff;verticalAlign=top;strokeWidth=2;strokeColor=#fddb1c;shadow=0;dashed=0;shape=mxgraph.ios7.icons.star;fillColor=none;fontColor=#000000;" parent="1zE7--B8gmnd__9OY-mV-126" vertex="1">
          <mxGeometry x="15" y="41.709999999999994" width="20" height="18.260000000000005" as="geometry" />
        </mxCell>
        <mxCell id="1zE7--B8gmnd__9OY-mV-157" value="" style="group" parent="1zE7--B8gmnd__9OY-mV-116" vertex="1" connectable="0">
          <mxGeometry x="15" y="61.03" width="140" height="70.35" as="geometry" />
        </mxCell>
        <mxCell id="jrZ7XB1-wAAe-d6OG5qt-89" value="" style="group" parent="1zE7--B8gmnd__9OY-mV-157" vertex="1" connectable="0">
          <mxGeometry width="140" height="70.35" as="geometry" />
        </mxCell>
        <mxCell id="1zE7--B8gmnd__9OY-mV-158" value="&lt;div&gt;&lt;div&gt;&lt;b style=&quot;font-size: 16px;&quot;&gt;&lt;br&gt;&lt;/b&gt;&lt;/div&gt;&lt;/div&gt;" style="rounded=1;whiteSpace=wrap;html=1;" parent="jrZ7XB1-wAAe-d6OG5qt-89" vertex="1">
          <mxGeometry y="0.34999999999998016" width="140" height="70.00000000000001" as="geometry" />
        </mxCell>
        <mxCell id="1zE7--B8gmnd__9OY-mV-159" value="" style="html=1;verticalLabelPosition=bottom;align=center;labelBackgroundColor=#ffffff;verticalAlign=top;strokeWidth=2;strokeColor=#6D1F00;shadow=0;dashed=0;shape=mxgraph.ios7.icons.shopping_cart;fillColor=none;fontColor=#ffffff;" parent="jrZ7XB1-wAAe-d6OG5qt-89" vertex="1">
          <mxGeometry x="105" y="39.999999999999964" width="20" height="19.700000000000003" as="geometry" />
        </mxCell>
        <mxCell id="1zE7--B8gmnd__9OY-mV-160" value="" style="html=1;verticalLabelPosition=bottom;align=center;labelBackgroundColor=#ffffff;verticalAlign=top;strokeWidth=2;strokeColor=#B20000;shadow=0;dashed=0;shape=mxgraph.ios7.icons.heart;fillColor=#e51400;fontColor=#ffffff;" parent="jrZ7XB1-wAAe-d6OG5qt-89" vertex="1">
          <mxGeometry x="45" y="42.95000000000001" width="20.3" height="16.750000000000004" as="geometry" />
        </mxCell>
        <mxCell id="1zE7--B8gmnd__9OY-mV-161" value="" style="html=1;verticalLabelPosition=bottom;align=center;labelBackgroundColor=#ffffff;verticalAlign=top;strokeWidth=2;strokeColor=#2D7600;shadow=0;dashed=0;shape=mxgraph.ios7.icons.link;fillColor=#60a917;fontColor=#ffffff;" parent="jrZ7XB1-wAAe-d6OG5qt-89" vertex="1">
          <mxGeometry x="75" y="41.97999999999998" width="20" height="17.720000000000002" as="geometry" />
        </mxCell>
        <mxCell id="1zE7--B8gmnd__9OY-mV-162" value="&lt;font color=&quot;#007fff&quot; style=&quot;font-size: 16px;&quot;&gt;товар_3&lt;/font&gt;" style="text;strokeColor=none;fillColor=none;html=1;fontSize=24;fontStyle=1;verticalAlign=middle;align=center;" parent="jrZ7XB1-wAAe-d6OG5qt-89" vertex="1">
          <mxGeometry x="20" width="100" height="40.00000000000001" as="geometry" />
        </mxCell>
        <mxCell id="1zE7--B8gmnd__9OY-mV-163" value="" style="html=1;verticalLabelPosition=bottom;align=center;labelBackgroundColor=#ffffff;verticalAlign=top;strokeWidth=2;strokeColor=#fddb1c;shadow=0;dashed=0;shape=mxgraph.ios7.icons.star;fillColor=none;fontColor=#000000;" parent="jrZ7XB1-wAAe-d6OG5qt-89" vertex="1">
          <mxGeometry x="15" y="41.709999999999994" width="20" height="18.260000000000005" as="geometry" />
        </mxCell>
        <mxCell id="1zE7--B8gmnd__9OY-mV-133" value="" style="group" parent="1zE7--B8gmnd__9OY-mV-116" vertex="1" connectable="0">
          <mxGeometry x="20" y="298" width="50" height="40" as="geometry" />
        </mxCell>
        <mxCell id="1zE7--B8gmnd__9OY-mV-134" value="" style="rounded=1;whiteSpace=wrap;html=1;" parent="1zE7--B8gmnd__9OY-mV-133" vertex="1">
          <mxGeometry y="10" width="50" height="30" as="geometry" />
        </mxCell>
        <mxCell id="1zE7--B8gmnd__9OY-mV-135" value="" style="html=1;verticalLabelPosition=bottom;align=center;labelBackgroundColor=#ffffff;verticalAlign=top;strokeWidth=2;strokeColor=#0080F0;shadow=0;dashed=0;shape=mxgraph.ios7.icons.back;" parent="1zE7--B8gmnd__9OY-mV-133" vertex="1">
          <mxGeometry x="10" y="15" width="30" height="20" as="geometry" />
        </mxCell>
        <mxCell id="1zE7--B8gmnd__9OY-mV-136" value="" style="group" parent="1zE7--B8gmnd__9OY-mV-116" vertex="1" connectable="0">
          <mxGeometry x="105" y="298" width="50" height="40" as="geometry" />
        </mxCell>
        <mxCell id="1zE7--B8gmnd__9OY-mV-137" value="" style="rounded=1;whiteSpace=wrap;html=1;" parent="1zE7--B8gmnd__9OY-mV-136" vertex="1">
          <mxGeometry y="10" width="50" height="30" as="geometry" />
        </mxCell>
        <mxCell id="1zE7--B8gmnd__9OY-mV-138" value="" style="html=1;verticalLabelPosition=bottom;align=center;labelBackgroundColor=#ffffff;verticalAlign=top;strokeWidth=2;strokeColor=#0080F0;shadow=0;dashed=0;shape=mxgraph.ios7.icons.home;" parent="1zE7--B8gmnd__9OY-mV-136" vertex="1">
          <mxGeometry x="13" y="15" width="24" height="20" as="geometry" />
        </mxCell>
        <mxCell id="jrZ7XB1-wAAe-d6OG5qt-71" value="&lt;div style=&quot;text-align: left;&quot;&gt;&lt;b style=&quot;font-size: 16px; background-color: initial;&quot;&gt;User Story&lt;/b&gt;&lt;/div&gt;&lt;div&gt;&lt;span style=&quot;font-size: 16px;&quot;&gt;&lt;b&gt;&lt;br&gt;&lt;/b&gt;&lt;/span&gt;&lt;div&gt;&lt;div style=&quot;text-align: left;&quot;&gt;&lt;span style=&quot;font-size: 14px;&quot;&gt;Я, как покупатель на маркетплейсе,&lt;/span&gt;&lt;/div&gt;&lt;div style=&quot;text-align: left;&quot;&gt;&lt;span style=&quot;font-size: 14px;&quot;&gt;хочу, чтобы все купленные мною товары автоматически добавлялись и хранились в личном разделе &lt;b&gt;&lt;font color=&quot;#4f4f4f&quot;&gt;Покупки&lt;/font&gt;&lt;/b&gt;,&lt;/span&gt;&lt;/div&gt;&lt;div style=&quot;text-align: left;&quot;&gt;&lt;span style=&quot;font-size: 14px;&quot;&gt;для того, чтобы я мог быстрее найти нужный товар для повторной покупки или рекомендации&lt;/span&gt;&lt;/div&gt;&lt;/div&gt;&lt;/div&gt;" style="text;html=1;align=center;verticalAlign=middle;resizable=0;points=[];autosize=1;strokeColor=none;fillColor=none;" parent="1" vertex="1">
          <mxGeometry x="39" y="-1090" width="750" height="100" as="geometry" />
        </mxCell>
        <mxCell id="jrZ7XB1-wAAe-d6OG5qt-77" value="&lt;b&gt;&lt;font style=&quot;font-size: 22px;&quot;&gt;WIREFRAME&lt;/font&gt;&lt;/b&gt;" style="text;html=1;align=center;verticalAlign=middle;resizable=0;points=[];autosize=1;strokeColor=none;fillColor=none;" parent="1" vertex="1">
          <mxGeometry x="334" y="-1150" width="160" height="40" as="geometry" />
        </mxCell>
        <mxCell id="jrZ7XB1-wAAe-d6OG5qt-153" value="" style="group;strokeWidth=2;" parent="1" vertex="1" connectable="0">
          <mxGeometry x="329" y="-470" width="170" height="360" as="geometry" />
        </mxCell>
        <mxCell id="jrZ7XB1-wAAe-d6OG5qt-126" value="" style="rounded=1;whiteSpace=wrap;html=1;align=center;" parent="jrZ7XB1-wAAe-d6OG5qt-153" vertex="1">
          <mxGeometry width="170" height="360" as="geometry" />
        </mxCell>
        <mxCell id="jrZ7XB1-wAAe-d6OG5qt-128" value="&lt;font color=&quot;#4f4f4f&quot;&gt;Главная&lt;/font&gt;" style="text;strokeColor=none;fillColor=none;html=1;fontSize=24;fontStyle=1;verticalAlign=middle;align=center;" parent="jrZ7XB1-wAAe-d6OG5qt-153" vertex="1">
          <mxGeometry x="35" y="8" width="100" height="40" as="geometry" />
        </mxCell>
        <mxCell id="jrZ7XB1-wAAe-d6OG5qt-129" value="" style="group" parent="jrZ7XB1-wAAe-d6OG5qt-153" vertex="1" connectable="0">
          <mxGeometry x="100" y="297.25" width="50" height="40" as="geometry" />
        </mxCell>
        <mxCell id="jrZ7XB1-wAAe-d6OG5qt-130" value="" style="rounded=1;whiteSpace=wrap;html=1;" parent="jrZ7XB1-wAAe-d6OG5qt-129" vertex="1">
          <mxGeometry y="10" width="50" height="30" as="geometry" />
        </mxCell>
        <mxCell id="jrZ7XB1-wAAe-d6OG5qt-131" value="" style="html=1;verticalLabelPosition=bottom;align=center;labelBackgroundColor=#ffffff;verticalAlign=top;strokeWidth=2;strokeColor=#878F99;shadow=0;dashed=0;shape=mxgraph.ios7.icons.home;" parent="jrZ7XB1-wAAe-d6OG5qt-129" vertex="1">
          <mxGeometry x="13" y="15" width="24" height="20" as="geometry" />
        </mxCell>
        <mxCell id="jrZ7XB1-wAAe-d6OG5qt-132" value="" style="group" parent="jrZ7XB1-wAAe-d6OG5qt-153" vertex="1" connectable="0">
          <mxGeometry x="20" y="297.25" width="50" height="40" as="geometry" />
        </mxCell>
        <mxCell id="jrZ7XB1-wAAe-d6OG5qt-133" value="" style="rounded=1;whiteSpace=wrap;html=1;" parent="jrZ7XB1-wAAe-d6OG5qt-132" vertex="1">
          <mxGeometry y="10" width="50" height="30" as="geometry" />
        </mxCell>
        <mxCell id="jrZ7XB1-wAAe-d6OG5qt-134" value="" style="html=1;verticalLabelPosition=bottom;align=center;labelBackgroundColor=#ffffff;verticalAlign=top;strokeWidth=2;strokeColor=#0080F0;shadow=0;dashed=0;shape=mxgraph.ios7.icons.back;" parent="jrZ7XB1-wAAe-d6OG5qt-132" vertex="1">
          <mxGeometry x="10" y="15" width="30" height="20" as="geometry" />
        </mxCell>
        <mxCell id="jrZ7XB1-wAAe-d6OG5qt-138" value="" style="group" parent="jrZ7XB1-wAAe-d6OG5qt-153" vertex="1" connectable="0">
          <mxGeometry x="20" y="108" width="130" height="34" as="geometry" />
        </mxCell>
        <mxCell id="jrZ7XB1-wAAe-d6OG5qt-139" value="&lt;span style=&quot;font-size: 16px;&quot;&gt;&lt;b&gt;&lt;font color=&quot;#007fff&quot;&gt;Каталог&lt;/font&gt;&lt;/b&gt;&lt;/span&gt;" style="rounded=1;whiteSpace=wrap;html=1;align=center;" parent="jrZ7XB1-wAAe-d6OG5qt-138" vertex="1">
          <mxGeometry width="130" height="34" as="geometry" />
        </mxCell>
        <mxCell id="jrZ7XB1-wAAe-d6OG5qt-151" value="&lt;span style=&quot;font-size: 16px;&quot;&gt;&lt;b&gt;&lt;font color=&quot;#007fff&quot;&gt;Профиль&lt;/font&gt;&lt;/b&gt;&lt;/span&gt;" style="rounded=1;whiteSpace=wrap;html=1;align=center;" parent="jrZ7XB1-wAAe-d6OG5qt-153" vertex="1">
          <mxGeometry x="20" y="60" width="130" height="34" as="geometry" />
        </mxCell>
        <mxCell id="jrZ7XB1-wAAe-d6OG5qt-150" value="&lt;span style=&quot;font-size: 16px;&quot;&gt;&lt;b&gt;&lt;font color=&quot;#007fff&quot;&gt;Избранное&lt;/font&gt;&lt;/b&gt;&lt;/span&gt;" style="rounded=1;whiteSpace=wrap;html=1;align=center;" parent="jrZ7XB1-wAAe-d6OG5qt-153" vertex="1">
          <mxGeometry x="20" y="250" width="130" height="34" as="geometry" />
        </mxCell>
        <mxCell id="jrZ7XB1-wAAe-d6OG5qt-149" value="&lt;span style=&quot;font-size: 16px;&quot;&gt;&lt;b&gt;&lt;font color=&quot;#007fff&quot;&gt;Покупки&lt;/font&gt;&lt;/b&gt;&lt;/span&gt;" style="rounded=1;whiteSpace=wrap;html=1;align=center;" parent="jrZ7XB1-wAAe-d6OG5qt-153" vertex="1">
          <mxGeometry x="20" y="203" width="130" height="34" as="geometry" />
        </mxCell>
        <mxCell id="jrZ7XB1-wAAe-d6OG5qt-148" value="&lt;span style=&quot;font-size: 16px;&quot;&gt;&lt;b&gt;&lt;font color=&quot;#007fff&quot;&gt;Корзина&lt;/font&gt;&lt;/b&gt;&lt;/span&gt;" style="rounded=1;whiteSpace=wrap;html=1;align=center;" parent="jrZ7XB1-wAAe-d6OG5qt-153" vertex="1">
          <mxGeometry x="20" y="155" width="130" height="34" as="geometry" />
        </mxCell>
        <mxCell id="jrZ7XB1-wAAe-d6OG5qt-227" style="edgeStyle=orthogonalEdgeStyle;rounded=0;orthogonalLoop=1;jettySize=auto;html=1;entryX=1;entryY=0.5;entryDx=0;entryDy=0;dashed=1;dashPattern=1 2;exitX=0.322;exitY=0.01;exitDx=0;exitDy=0;exitPerimeter=0;" parent="1" source="jrZ7XB1-wAAe-d6OG5qt-175" target="1zE7--B8gmnd__9OY-mV-127" edge="1">
          <mxGeometry relative="1" as="geometry">
            <Array as="points" />
          </mxGeometry>
        </mxCell>
        <mxCell id="jrZ7XB1-wAAe-d6OG5qt-231" value="" style="edgeStyle=orthogonalEdgeStyle;rounded=0;orthogonalLoop=1;jettySize=auto;html=1;entryX=1;entryY=0.5;entryDx=0;entryDy=0;dashed=1;dashPattern=1 2;exitX=0.667;exitY=0.07;exitDx=0;exitDy=0;exitPerimeter=0;" parent="1" source="jrZ7XB1-wAAe-d6OG5qt-175" target="1zE7--B8gmnd__9OY-mV-119" edge="1">
          <mxGeometry relative="1" as="geometry">
            <mxPoint x="772" y="-721" as="sourcePoint" />
            <mxPoint x="740" y="-732" as="targetPoint" />
            <Array as="points" />
          </mxGeometry>
        </mxCell>
        <mxCell id="jrZ7XB1-wAAe-d6OG5qt-175" value="&lt;font style=&quot;font-size: 14px;&quot;&gt;&lt;b&gt;Повторно купленные товары&lt;/b&gt;&lt;/font&gt;&lt;div&gt;&lt;font style=&quot;font-size: 14px;&quot;&gt;&lt;b&gt;продвигаются выше&amp;nbsp;&amp;nbsp;&lt;/b&gt;&lt;/font&gt;&lt;/div&gt;" style="text;html=1;align=center;verticalAlign=middle;resizable=0;points=[];autosize=1;rotation=-90;" parent="1" vertex="1">
          <mxGeometry x="682.9999999999999" y="-720" width="230" height="50" as="geometry" />
        </mxCell>
        <mxCell id="jrZ7XB1-wAAe-d6OG5qt-177" value="" style="group;strokeWidth=2;" parent="1" vertex="1" connectable="0">
          <mxGeometry x="329" y="-910" width="354" height="360" as="geometry" />
        </mxCell>
        <mxCell id="jrZ7XB1-wAAe-d6OG5qt-187" value="" style="rounded=1;whiteSpace=wrap;html=1;dashed=1;" parent="jrZ7XB1-wAAe-d6OG5qt-177" vertex="1">
          <mxGeometry x="30" y="254" width="110" height="40" as="geometry" />
        </mxCell>
        <mxCell id="jrZ7XB1-wAAe-d6OG5qt-156" value="" style="rounded=1;whiteSpace=wrap;html=1;align=center;opacity=30;" parent="jrZ7XB1-wAAe-d6OG5qt-177" vertex="1">
          <mxGeometry width="170" height="360" as="geometry" />
        </mxCell>
        <mxCell id="jrZ7XB1-wAAe-d6OG5qt-157" value="&lt;b&gt;&lt;font color=&quot;#bddeff&quot; style=&quot;font-size: 16px;&quot;&gt;оплатить&lt;/font&gt;&lt;/b&gt;" style="rounded=1;whiteSpace=wrap;html=1;opacity=30;" parent="jrZ7XB1-wAAe-d6OG5qt-177" vertex="1">
          <mxGeometry x="35" y="260" width="100" height="30" as="geometry" />
        </mxCell>
        <mxCell id="jrZ7XB1-wAAe-d6OG5qt-158" value="&lt;font color=&quot;#c2c2c2&quot;&gt;Корзина&lt;/font&gt;" style="text;strokeColor=none;fillColor=none;html=1;fontSize=24;fontStyle=1;verticalAlign=middle;align=center;opacity=30;" parent="jrZ7XB1-wAAe-d6OG5qt-177" vertex="1">
          <mxGeometry x="35" y="10" width="100" height="40" as="geometry" />
        </mxCell>
        <mxCell id="jrZ7XB1-wAAe-d6OG5qt-159" value="" style="group;opacity=30;" parent="jrZ7XB1-wAAe-d6OG5qt-177" vertex="1" connectable="0">
          <mxGeometry x="100" y="297.25" width="50" height="40" as="geometry" />
        </mxCell>
        <mxCell id="jrZ7XB1-wAAe-d6OG5qt-160" value="" style="rounded=1;whiteSpace=wrap;html=1;opacity=30;" parent="jrZ7XB1-wAAe-d6OG5qt-159" vertex="1">
          <mxGeometry y="10" width="50" height="30" as="geometry" />
        </mxCell>
        <mxCell id="jrZ7XB1-wAAe-d6OG5qt-161" value="" style="html=1;verticalLabelPosition=bottom;align=center;labelBackgroundColor=#ffffff;verticalAlign=top;strokeWidth=2;strokeColor=#0080F0;shadow=0;dashed=0;shape=mxgraph.ios7.icons.home;opacity=30;" parent="jrZ7XB1-wAAe-d6OG5qt-159" vertex="1">
          <mxGeometry x="13" y="15" width="24" height="20" as="geometry" />
        </mxCell>
        <mxCell id="jrZ7XB1-wAAe-d6OG5qt-162" value="" style="group;opacity=30;" parent="jrZ7XB1-wAAe-d6OG5qt-177" vertex="1" connectable="0">
          <mxGeometry x="20" y="297.25" width="50" height="40" as="geometry" />
        </mxCell>
        <mxCell id="jrZ7XB1-wAAe-d6OG5qt-163" value="" style="rounded=1;whiteSpace=wrap;html=1;opacity=30;" parent="jrZ7XB1-wAAe-d6OG5qt-162" vertex="1">
          <mxGeometry y="10" width="50" height="30" as="geometry" />
        </mxCell>
        <mxCell id="jrZ7XB1-wAAe-d6OG5qt-164" value="" style="html=1;verticalLabelPosition=bottom;align=center;labelBackgroundColor=#ffffff;verticalAlign=top;strokeWidth=2;strokeColor=#0080F0;shadow=0;dashed=0;shape=mxgraph.ios7.icons.back;opacity=30;" parent="jrZ7XB1-wAAe-d6OG5qt-162" vertex="1">
          <mxGeometry x="10" y="15" width="30" height="20" as="geometry" />
        </mxCell>
        <mxCell id="jrZ7XB1-wAAe-d6OG5qt-165" value="" style="group;opacity=30;" parent="jrZ7XB1-wAAe-d6OG5qt-177" vertex="1" connectable="0">
          <mxGeometry x="20" y="60" width="130" height="40" as="geometry" />
        </mxCell>
        <mxCell id="jrZ7XB1-wAAe-d6OG5qt-166" value="&lt;b style=&quot;font-size: 16px;&quot;&gt;&lt;font color=&quot;#bddeff&quot;&gt;&amp;nbsp; &amp;nbsp;товар_1&lt;/font&gt;&lt;/b&gt;" style="rounded=1;whiteSpace=wrap;html=1;align=left;opacity=30;" parent="jrZ7XB1-wAAe-d6OG5qt-165" vertex="1">
          <mxGeometry width="130" height="40" as="geometry" />
        </mxCell>
        <mxCell id="jrZ7XB1-wAAe-d6OG5qt-167" value="" style="html=1;verticalLabelPosition=bottom;align=center;labelBackgroundColor=#ffffff;verticalAlign=top;strokeWidth=2;strokeColor=#314354;shadow=0;dashed=0;shape=mxgraph.ios7.icons.trashcan;fillColor=none;fontColor=#ffffff;opacity=30;" parent="jrZ7XB1-wAAe-d6OG5qt-165" vertex="1">
          <mxGeometry x="95" y="11.379999999999995" width="20" height="17.25" as="geometry" />
        </mxCell>
        <mxCell id="jrZ7XB1-wAAe-d6OG5qt-168" value="" style="group;opacity=30;" parent="jrZ7XB1-wAAe-d6OG5qt-177" vertex="1" connectable="0">
          <mxGeometry x="20" y="110" width="130" height="40" as="geometry" />
        </mxCell>
        <mxCell id="jrZ7XB1-wAAe-d6OG5qt-169" value="&lt;b style=&quot;font-size: 16px;&quot;&gt;&lt;font color=&quot;#bddeff&quot;&gt;&amp;nbsp; &amp;nbsp;товар_3&lt;/font&gt;&lt;/b&gt;" style="rounded=1;whiteSpace=wrap;html=1;align=left;opacity=30;" parent="jrZ7XB1-wAAe-d6OG5qt-168" vertex="1">
          <mxGeometry width="130" height="40" as="geometry" />
        </mxCell>
        <mxCell id="jrZ7XB1-wAAe-d6OG5qt-170" value="" style="html=1;verticalLabelPosition=bottom;align=center;labelBackgroundColor=#ffffff;verticalAlign=top;strokeWidth=2;strokeColor=#314354;shadow=0;dashed=0;shape=mxgraph.ios7.icons.trashcan;fillColor=none;fontColor=#ffffff;opacity=30;" parent="jrZ7XB1-wAAe-d6OG5qt-168" vertex="1">
          <mxGeometry x="95" y="11.379999999999995" width="20" height="17.25" as="geometry" />
        </mxCell>
        <mxCell id="jrZ7XB1-wAAe-d6OG5qt-171" value="" style="group;opacity=30;" parent="jrZ7XB1-wAAe-d6OG5qt-177" vertex="1" connectable="0">
          <mxGeometry x="20" y="160" width="130" height="40" as="geometry" />
        </mxCell>
        <mxCell id="jrZ7XB1-wAAe-d6OG5qt-172" value="&lt;b style=&quot;font-size: 16px;&quot;&gt;&lt;font color=&quot;#bddeff&quot;&gt;&amp;nbsp; &amp;nbsp;товар_9&lt;/font&gt;&lt;/b&gt;" style="rounded=1;whiteSpace=wrap;html=1;align=left;opacity=30;" parent="jrZ7XB1-wAAe-d6OG5qt-171" vertex="1">
          <mxGeometry width="130" height="40" as="geometry" />
        </mxCell>
        <mxCell id="jrZ7XB1-wAAe-d6OG5qt-173" value="" style="html=1;verticalLabelPosition=bottom;align=center;labelBackgroundColor=#ffffff;verticalAlign=top;strokeWidth=2;strokeColor=#314354;shadow=0;dashed=0;shape=mxgraph.ios7.icons.trashcan;fillColor=none;fontColor=#ffffff;opacity=30;" parent="jrZ7XB1-wAAe-d6OG5qt-171" vertex="1">
          <mxGeometry x="95" y="11.379999999999995" width="20" height="17.25" as="geometry" />
        </mxCell>
        <mxCell id="jrZ7XB1-wAAe-d6OG5qt-82" value="&lt;b style=&quot;font-size: 14px; background-color: rgb(255, 255, 255);&quot;&gt;Товары, которые&lt;/b&gt;&lt;div&gt;&lt;b style=&quot;font-size: 14px; background-color: rgb(255, 255, 255);&quot;&gt;не&amp;nbsp;&lt;/b&gt;&lt;b style=&quot;font-size: 14px; background-color: rgb(255, 255, 255);&quot;&gt;покупались&amp;nbsp;&lt;/b&gt;&lt;b style=&quot;font-size: 14px; background-color: rgb(255, 255, 255);&quot;&gt;ранее,&lt;/b&gt;&lt;div&gt;&lt;b style=&quot;font-size: 14px; background-color: rgb(255, 255, 255);&quot;&gt;добавляются&lt;/b&gt;&lt;b style=&quot;font-size: 14px; background-color: rgb(255, 255, 255);&quot;&gt;&amp;nbsp;в самый верх&amp;nbsp;&lt;/b&gt;&lt;/div&gt;&lt;/div&gt;" style="text;html=1;align=center;verticalAlign=middle;resizable=0;points=[];autosize=1;strokeColor=none;fillColor=none;rotation=-90;" parent="jrZ7XB1-wAAe-d6OG5qt-177" vertex="1">
          <mxGeometry x="91" y="70" width="220" height="60" as="geometry" />
        </mxCell>
        <mxCell id="jrZ7XB1-wAAe-d6OG5qt-188" value="" style="group;strokeWidth=2;strokeColor=none;perimeterSpacing=0;" parent="1" vertex="1" connectable="0">
          <mxGeometry x="78" y="-470" width="170" height="360" as="geometry" />
        </mxCell>
        <mxCell id="jrZ7XB1-wAAe-d6OG5qt-189" value="" style="rounded=1;whiteSpace=wrap;html=1;align=center;" parent="jrZ7XB1-wAAe-d6OG5qt-188" vertex="1">
          <mxGeometry width="170" height="360" as="geometry" />
        </mxCell>
        <mxCell id="jrZ7XB1-wAAe-d6OG5qt-190" value="&lt;font color=&quot;#4f4f4f&quot;&gt;Поделиться&lt;/font&gt;" style="text;strokeColor=none;fillColor=none;html=1;fontSize=24;fontStyle=1;verticalAlign=middle;align=center;" parent="jrZ7XB1-wAAe-d6OG5qt-188" vertex="1">
          <mxGeometry x="35" y="8" width="100" height="40" as="geometry" />
        </mxCell>
        <mxCell id="jrZ7XB1-wAAe-d6OG5qt-191" value="" style="group" parent="jrZ7XB1-wAAe-d6OG5qt-188" vertex="1" connectable="0">
          <mxGeometry x="100" y="297.25" width="50" height="40" as="geometry" />
        </mxCell>
        <mxCell id="jrZ7XB1-wAAe-d6OG5qt-192" value="" style="rounded=1;whiteSpace=wrap;html=1;" parent="jrZ7XB1-wAAe-d6OG5qt-191" vertex="1">
          <mxGeometry y="10" width="50" height="30" as="geometry" />
        </mxCell>
        <mxCell id="jrZ7XB1-wAAe-d6OG5qt-193" value="" style="html=1;verticalLabelPosition=bottom;align=center;labelBackgroundColor=#ffffff;verticalAlign=top;strokeWidth=2;strokeColor=#007FFF;shadow=0;dashed=0;shape=mxgraph.ios7.icons.home;" parent="jrZ7XB1-wAAe-d6OG5qt-191" vertex="1">
          <mxGeometry x="13" y="15" width="24" height="20" as="geometry" />
        </mxCell>
        <mxCell id="jrZ7XB1-wAAe-d6OG5qt-194" value="" style="group" parent="jrZ7XB1-wAAe-d6OG5qt-188" vertex="1" connectable="0">
          <mxGeometry x="20" y="297.25" width="50" height="40" as="geometry" />
        </mxCell>
        <mxCell id="jrZ7XB1-wAAe-d6OG5qt-195" value="" style="rounded=1;whiteSpace=wrap;html=1;" parent="jrZ7XB1-wAAe-d6OG5qt-194" vertex="1">
          <mxGeometry y="10" width="50" height="30" as="geometry" />
        </mxCell>
        <mxCell id="jrZ7XB1-wAAe-d6OG5qt-196" value="" style="html=1;verticalLabelPosition=bottom;align=center;labelBackgroundColor=#ffffff;verticalAlign=top;strokeWidth=2;strokeColor=#0080F0;shadow=0;dashed=0;shape=mxgraph.ios7.icons.back;" parent="jrZ7XB1-wAAe-d6OG5qt-194" vertex="1">
          <mxGeometry x="10" y="15" width="30" height="20" as="geometry" />
        </mxCell>
        <mxCell id="jrZ7XB1-wAAe-d6OG5qt-199" value="&lt;span style=&quot;font-size: 16px;&quot;&gt;&lt;b&gt;товар_9&lt;/b&gt;&lt;/span&gt;" style="rounded=1;whiteSpace=wrap;html=1;align=center;" parent="jrZ7XB1-wAAe-d6OG5qt-188" vertex="1">
          <mxGeometry x="20" y="60" width="130" height="100" as="geometry" />
        </mxCell>
        <mxCell id="jrZ7XB1-wAAe-d6OG5qt-200" value="&lt;span style=&quot;font-size: 16px;&quot;&gt;&lt;b&gt;&lt;font color=&quot;#007fff&quot;&gt;скопировать&lt;/font&gt;&lt;/b&gt;&lt;/span&gt;&lt;div&gt;&lt;span style=&quot;font-size: 16px;&quot;&gt;&lt;b&gt;&lt;font color=&quot;#007fff&quot;&gt;ссылку&lt;/font&gt;&lt;/b&gt;&lt;/span&gt;&lt;/div&gt;" style="rounded=1;whiteSpace=wrap;html=1;align=center;" parent="jrZ7XB1-wAAe-d6OG5qt-188" vertex="1">
          <mxGeometry x="20" y="180" width="130" height="50" as="geometry" />
        </mxCell>
        <mxCell id="jrZ7XB1-wAAe-d6OG5qt-206" style="edgeStyle=orthogonalEdgeStyle;rounded=0;orthogonalLoop=1;jettySize=auto;html=1;" parent="1" source="jrZ7XB1-wAAe-d6OG5qt-149" edge="1">
          <mxGeometry relative="1" as="geometry">
            <mxPoint x="670" y="-552" as="targetPoint" />
            <Array as="points">
              <mxPoint x="540" y="-250" />
              <mxPoint x="540" y="-510" />
              <mxPoint x="670" y="-510" />
            </Array>
          </mxGeometry>
        </mxCell>
        <mxCell id="jrZ7XB1-wAAe-d6OG5qt-208" style="edgeStyle=orthogonalEdgeStyle;rounded=0;orthogonalLoop=1;jettySize=auto;html=1;entryX=0;entryY=0.5;entryDx=0;entryDy=0;" parent="1" source="jrZ7XB1-wAAe-d6OG5qt-150" target="1zE7--B8gmnd__9OY-mV-80" edge="1">
          <mxGeometry relative="1" as="geometry">
            <mxPoint x="568" y="-298" as="targetPoint" />
            <Array as="points">
              <mxPoint x="558" y="-203" />
              <mxPoint x="558" y="-290" />
            </Array>
          </mxGeometry>
        </mxCell>
        <mxCell id="jrZ7XB1-wAAe-d6OG5qt-210" style="edgeStyle=orthogonalEdgeStyle;rounded=0;orthogonalLoop=1;jettySize=auto;html=1;" parent="1" source="1zE7--B8gmnd__9OY-mV-186" edge="1">
          <mxGeometry relative="1" as="geometry">
            <mxPoint x="165" y="-470" as="targetPoint" />
            <Array as="points">
              <mxPoint x="180" y="-610" />
              <mxPoint x="165" y="-610" />
              <mxPoint x="165" y="-470" />
            </Array>
          </mxGeometry>
        </mxCell>
        <mxCell id="jrZ7XB1-wAAe-d6OG5qt-211" style="edgeStyle=orthogonalEdgeStyle;rounded=0;orthogonalLoop=1;jettySize=auto;html=1;entryX=0;entryY=0.5;entryDx=0;entryDy=0;strokeColor=#878F99;dashed=1;dashPattern=8 8;" parent="1" source="1zE7--B8gmnd__9OY-mV-65" target="jrZ7XB1-wAAe-d6OG5qt-166" edge="1">
          <mxGeometry relative="1" as="geometry" />
        </mxCell>
        <mxCell id="jrZ7XB1-wAAe-d6OG5qt-212" style="edgeStyle=orthogonalEdgeStyle;rounded=0;orthogonalLoop=1;jettySize=auto;html=1;entryX=0;entryY=0.5;entryDx=0;entryDy=0;strokeColor=#878F99;dashed=1;dashPattern=8 8;" parent="1" source="1zE7--B8gmnd__9OY-mV-184" target="jrZ7XB1-wAAe-d6OG5qt-172" edge="1">
          <mxGeometry relative="1" as="geometry" />
        </mxCell>
        <mxCell id="jrZ7XB1-wAAe-d6OG5qt-213" style="edgeStyle=orthogonalEdgeStyle;rounded=0;orthogonalLoop=1;jettySize=auto;html=1;entryX=0;entryY=0.5;entryDx=0;entryDy=0;" parent="1" source="1zE7--B8gmnd__9OY-mV-57" target="jrZ7XB1-wAAe-d6OG5qt-126" edge="1">
          <mxGeometry relative="1" as="geometry">
            <Array as="points">
              <mxPoint x="290" y="-585" />
              <mxPoint x="290" y="-290" />
            </Array>
          </mxGeometry>
        </mxCell>
        <mxCell id="jrZ7XB1-wAAe-d6OG5qt-216" style="edgeStyle=orthogonalEdgeStyle;rounded=0;orthogonalLoop=1;jettySize=auto;html=1;exitX=0;exitY=0.5;exitDx=0;exitDy=0;" parent="1" source="jrZ7XB1-wAAe-d6OG5qt-195" edge="1">
          <mxGeometry relative="1" as="geometry">
            <mxPoint x="77" y="-712" as="targetPoint" />
            <Array as="points">
              <mxPoint x="40" y="-148" />
              <mxPoint x="40" y="-712" />
            </Array>
          </mxGeometry>
        </mxCell>
        <mxCell id="jrZ7XB1-wAAe-d6OG5qt-218" style="edgeStyle=orthogonalEdgeStyle;rounded=0;orthogonalLoop=1;jettySize=auto;html=1;exitX=1;exitY=0.5;exitDx=0;exitDy=0;strokeColor=#878F99;" parent="1" source="jrZ7XB1-wAAe-d6OG5qt-148" edge="1">
          <mxGeometry relative="1" as="geometry">
            <mxPoint x="500" y="-730" as="targetPoint" />
            <mxPoint x="510.1699999999998" y="-279.9655172413793" as="sourcePoint" />
            <Array as="points">
              <mxPoint x="520" y="-298" />
              <mxPoint x="520" y="-730" />
              <mxPoint x="500" y="-730" />
            </Array>
          </mxGeometry>
        </mxCell>
        <mxCell id="jrZ7XB1-wAAe-d6OG5qt-223" style="edgeStyle=orthogonalEdgeStyle;rounded=0;orthogonalLoop=1;jettySize=auto;html=1;entryX=0.5;entryY=1;entryDx=0;entryDy=0;" parent="1" source="1zE7--B8gmnd__9OY-mV-137" target="jrZ7XB1-wAAe-d6OG5qt-126" edge="1">
          <mxGeometry relative="1" as="geometry">
            <mxPoint x="414" y="-90" as="targetPoint" />
            <Array as="points">
              <mxPoint x="790" y="-587" />
              <mxPoint x="790" y="-70" />
              <mxPoint x="414" y="-70" />
            </Array>
          </mxGeometry>
        </mxCell>
        <mxCell id="jrZ7XB1-wAAe-d6OG5qt-226" value="" style="edgeStyle=orthogonalEdgeStyle;rounded=0;orthogonalLoop=1;jettySize=auto;html=1;entryX=0;entryY=0.5;entryDx=0;entryDy=0;dashed=1;dashPattern=1 2;exitX=0.52;exitY=0.975;exitDx=0;exitDy=0;exitPerimeter=0;" parent="1" source="jrZ7XB1-wAAe-d6OG5qt-82" target="1zE7--B8gmnd__9OY-mV-158" edge="1">
          <mxGeometry relative="1" as="geometry">
            <mxPoint x="567.8599999999999" y="-814.1600000000001" as="sourcePoint" />
            <mxPoint x="590" y="-830" as="targetPoint" />
            <Array as="points" />
          </mxGeometry>
        </mxCell>
        <mxCell id="jrZ7XB1-wAAe-d6OG5qt-229" value="&lt;font style=&quot;font-size: 14px;&quot;&gt;&lt;b&gt;В разделе &lt;font color=&quot;#4f4f4f&quot;&gt;Покупки&lt;/font&gt;&amp;nbsp;&lt;/b&gt;&lt;/font&gt;&lt;div style=&quot;font-size: 11px;&quot;&gt;&lt;font style=&quot;font-size: 14px;&quot;&gt;&lt;b&gt;можно оценить товар&lt;/b&gt;&lt;/font&gt;&lt;/div&gt;" style="text;html=1;align=center;verticalAlign=middle;resizable=0;points=[];autosize=1;strokeColor=none;fillColor=none;rotation=-90;" parent="1" vertex="1">
          <mxGeometry x="-50" y="-830" width="170" height="50" as="geometry" />
        </mxCell>
        <mxCell id="jrZ7XB1-wAAe-d6OG5qt-230" style="edgeStyle=orthogonalEdgeStyle;rounded=0;orthogonalLoop=1;jettySize=auto;html=1;entryX=0.118;entryY=0.549;entryDx=0;entryDy=0;entryPerimeter=0;exitX=0.437;exitY=1.006;exitDx=0;exitDy=0;exitPerimeter=0;dashed=1;dashPattern=1 2;" parent="1" target="jrZ7XB1-wAAe-d6OG5qt-179" edge="1">
          <mxGeometry relative="1" as="geometry">
            <mxPoint x="60.299999999999955" y="-796.29" as="sourcePoint" />
            <Array as="points" />
          </mxGeometry>
        </mxCell>
        <mxCell id="jrZ7XB1-wAAe-d6OG5qt-248" style="edgeStyle=orthogonalEdgeStyle;rounded=0;orthogonalLoop=1;jettySize=auto;html=1;dashed=1;dashPattern=1 2;" parent="1" source="jrZ7XB1-wAAe-d6OG5qt-174" edge="1">
          <mxGeometry relative="1" as="geometry">
            <mxPoint x="670" y="-910" as="targetPoint" />
            <Array as="points">
              <mxPoint x="670" y="-950" />
            </Array>
          </mxGeometry>
        </mxCell>
        <mxCell id="jrZ7XB1-wAAe-d6OG5qt-233" style="edgeStyle=orthogonalEdgeStyle;rounded=0;orthogonalLoop=1;jettySize=auto;html=1;entryX=1;entryY=0.5;entryDx=0;entryDy=0;dashed=1;dashPattern=8 8;" parent="1" source="1zE7--B8gmnd__9OY-mV-160" target="1zE7--B8gmnd__9OY-mV-150" edge="1">
          <mxGeometry relative="1" as="geometry">
            <Array as="points">
              <mxPoint x="650" y="-860" />
              <mxPoint x="760" y="-860" />
              <mxPoint x="760" y="-375" />
            </Array>
          </mxGeometry>
        </mxCell>
        <mxCell id="jrZ7XB1-wAAe-d6OG5qt-240" style="edgeStyle=orthogonalEdgeStyle;rounded=0;orthogonalLoop=1;jettySize=auto;html=1;exitX=0.5;exitY=1;exitDx=0;exitDy=0;entryX=0.5;entryY=0;entryDx=0;entryDy=0;strokeColor=#4F4F4F;dashed=1;" parent="1" source="jrZ7XB1-wAAe-d6OG5qt-242" target="jrZ7XB1-wAAe-d6OG5qt-126" edge="1">
          <mxGeometry relative="1" as="geometry" />
        </mxCell>
        <mxCell id="jrZ7XB1-wAAe-d6OG5qt-241" value="&lt;font color=&quot;#878f99&quot; style=&quot;font-size: 14px;&quot;&gt;&lt;b&gt;Через сервис Оплаты&lt;/b&gt;&lt;/font&gt;" style="edgeLabel;html=1;align=center;verticalAlign=middle;resizable=0;points=[];" parent="jrZ7XB1-wAAe-d6OG5qt-240" vertex="1" connectable="0">
          <mxGeometry x="0.2933" y="-1" relative="1" as="geometry">
            <mxPoint x="1" y="-34" as="offset" />
          </mxGeometry>
        </mxCell>
        <mxCell id="jrZ7XB1-wAAe-d6OG5qt-243" value="" style="edgeStyle=orthogonalEdgeStyle;rounded=0;orthogonalLoop=1;jettySize=auto;html=1;exitX=0.5;exitY=1;exitDx=0;exitDy=0;entryX=0.5;entryY=0;entryDx=0;entryDy=0;strokeColor=#4F4F4F;dashed=1;" parent="1" source="jrZ7XB1-wAAe-d6OG5qt-157" target="jrZ7XB1-wAAe-d6OG5qt-242" edge="1">
          <mxGeometry relative="1" as="geometry">
            <mxPoint x="414" y="-620" as="sourcePoint" />
            <mxPoint x="414" y="-470" as="targetPoint" />
          </mxGeometry>
        </mxCell>
        <mxCell id="jrZ7XB1-wAAe-d6OG5qt-247" style="edgeStyle=orthogonalEdgeStyle;rounded=0;orthogonalLoop=1;jettySize=auto;html=1;dashed=1;exitX=0.5;exitY=0;exitDx=0;exitDy=0;dashPattern=1 2;" parent="1" source="JTxMD57BZDx9iJpPwKIt-2" target="jrZ7XB1-wAAe-d6OG5qt-174" edge="1">
          <mxGeometry relative="1" as="geometry">
            <Array as="points">
              <mxPoint x="165" y="-950" />
            </Array>
          </mxGeometry>
        </mxCell>
        <mxCell id="jrZ7XB1-wAAe-d6OG5qt-250" value="" style="rounded=1;whiteSpace=wrap;html=1;dashed=1;dashPattern=1 2;" parent="1" vertex="1">
          <mxGeometry x="180" y="-970" width="480" height="30" as="geometry" />
        </mxCell>
        <mxCell id="jrZ7XB1-wAAe-d6OG5qt-174" value="&lt;b style=&quot;font-size: 11px;&quot;&gt;&lt;font style=&quot;font-size: 14px;&quot;&gt;После оплаты товаров&amp;nbsp;из&amp;nbsp;&lt;font color=&quot;#4f4f4f&quot;&gt;Корзины&lt;/font&gt;&amp;nbsp;&lt;/font&gt;&lt;/b&gt;&lt;b style=&quot;background-color: initial; font-size: 11px;&quot;&gt;&lt;font style=&quot;font-size: 14px;&quot;&gt;раздел &lt;font color=&quot;#4f4f4f&quot;&gt;Покупки&lt;/font&gt;&amp;nbsp;обновляется&lt;/font&gt;&lt;/b&gt;" style="text;html=1;align=center;verticalAlign=middle;resizable=0;points=[];autosize=1;strokeColor=none;fillColor=none;dashed=1;dashPattern=1 2;" parent="1" vertex="1">
          <mxGeometry x="180" y="-970" width="480" height="30" as="geometry" />
        </mxCell>
      </root>
    </mxGraphModel>
  </diagram>
</mxfile>
